<svg width="143" height="79" viewBox="0 0 143 79" fill="none" xmlns="http://www.w3.org/2000/svg">
<path d="M123.263 25.6986V16.7573H95.4733V52.2238H106.041V40.1441H119.588V31.2029H106.041V25.6986H123.263Z" fill="#F7941D"/>
<path d="M104.988 51.0675H96.7233V17.9136H122.21V24.5422H104.988V32.3591H118.535V38.9878H104.988V51.0675Z" fill="#3C2913"/>
<path d="M55.7854 21.0576C47.9404 22.6828 43.4301 25.1126 43.3291 25.1659C43.3025 25.1819 43.2759 25.1872 43.244 25.2032C42.26 28.1499 41.7175 31.3043 41.7175 34.5814C41.7175 42.7127 45.0045 50.0926 50.3178 55.4531C50.9561 53.1192 52.2485 48.2063 53.4186 42.5368C55.3014 33.3824 56.0939 26.0877 55.7854 21.0576Z" fill="#F7941D"/>
<path d="M57.8016 20.6793C58.1846 25.9492 57.3974 33.3771 55.4295 42.9471C54.036 49.7143 52.467 55.4211 52.0149 57.0197C56.9559 61.2931 63.3171 63.952 70.2845 64.1918V19.6402C65.5775 19.6242 61.3917 20.0505 57.8016 20.6793Z" fill="#F7941D"/>
<path d="M53.8228 14.2691C53.0994 13.4591 52.174 13.1234 50.9879 13.23C50.9294 13.2353 50.8709 13.23 50.8177 13.23C48.1052 15.841 45.8926 18.9635 44.3236 22.443C46.4777 21.5212 50.3284 20.0985 55.5832 19.0274C55.2748 16.8427 54.6897 15.2389 53.8228 14.2691Z" fill="#F7941D"/>
<path d="M55.3502 12.9048C56.4564 14.1411 57.1957 16.0753 57.5787 18.6596C61.2486 18.0255 65.5088 17.5939 70.2744 17.6099V4.9707C63.743 5.1945 57.7382 7.5497 52.9408 11.3702C53.8609 11.6313 54.6694 12.1375 55.3502 12.9048Z" fill="#F7941D"/>
<path d="M92.1547 55.5809C97.5425 50.2098 100.888 42.7765 100.888 34.5759C100.888 31.3042 100.345 28.1551 99.3668 25.2084C94.9204 23.5299 90.6655 22.3097 86.618 21.4412C86.1978 31.4108 89.9156 47.5508 92.1547 55.5809Z" fill="#F7941D"/>
<path d="M91.5969 13.0435C91.5437 13.0488 91.4905 13.0488 91.4373 13.0435C90.1874 12.9263 89.2513 13.2939 88.5014 14.1998C87.5813 15.3188 87.0334 17.1251 86.7728 19.3791C90.4799 20.1624 94.3573 21.2441 98.3941 22.6774C96.7826 19.0274 94.4583 15.7557 91.5969 13.0435Z" fill="#F7941D"/>
<path d="M84.7996 18.9847C85.1187 16.4004 85.7835 14.2797 86.9217 12.8996C87.6131 12.0577 88.4748 11.4929 89.4534 11.1998C84.6879 7.48051 78.7682 5.18925 72.3273 4.96545V17.6313C76.1939 17.7485 80.3638 18.1535 84.7996 18.9847Z" fill="#F7941D"/>
<path d="M84.6187 21.0308C80.2361 20.1995 76.1301 19.7892 72.3273 19.672V64.1916C79.2309 63.9572 85.5389 61.3409 90.4639 57.1367C89.6502 54.286 83.9273 33.67 84.6187 21.0308Z" fill="#F7941D"/>
<g opacity="0.42">
<path d="M87.0275 10.6776C87.0275 10.6776 85.134 11.2957 84.4213 13.0488C84.4213 13.0488 83.8469 8.92987 74.752 7.30467C74.752 7.31 81.0333 7.07022 87.0275 10.6776Z" fill="white"/>
</g>
<g opacity="0.42">
<path d="M89.208 15.7024C89.3197 15.4466 89.5271 15.0736 89.9048 14.7379C90.7132 14.0185 91.6865 14.0079 91.9578 14.0132C92.3673 14.3116 92.8247 14.7006 93.2715 15.2015C94.3724 16.4324 94.8671 17.7378 95.1011 18.5797C94.6331 18.0629 93.9097 17.3915 92.8939 16.816C91.4153 15.9848 90.0218 15.7663 89.208 15.7024Z" fill="white"/>
</g>
<path d="M52.0094 57.0196C52.0679 57.0729 52.1317 57.1209 52.1956 57.1741C57.461 38.908 58.7588 27.878 58.3652 21.2174C61.6841 20.7165 65.4656 20.3702 69.6195 20.3329V64.1545C69.8376 64.1651 70.0557 64.1865 70.279 64.1918V20.514V19.6348C65.5827 19.6189 61.3915 20.0398 57.7908 20.6579C57.7908 20.6632 57.7908 20.6686 57.7908 20.6739H57.7961C58.1791 25.9438 57.3919 33.3717 55.424 42.9417C54.0305 49.7196 52.4615 55.4211 52.0094 57.0196Z" fill="#8B5E3C"/>
<path d="M55.5946 19.0435C55.5946 19.0381 55.5946 19.0328 55.5946 19.0328H55.5893C55.2755 16.8481 54.6905 15.2389 53.8288 14.2744C53.1055 13.4645 52.1801 13.1288 50.994 13.2354C50.9355 13.2407 50.877 13.2354 50.8238 13.2354C53.1853 13.3739 54.4937 15.4041 55.1 18.5053C51.611 19.2779 48.0847 20.3809 44.5956 21.8942C44.5052 22.0807 44.4148 22.2619 44.3297 22.4484C43.9255 23.3489 43.5638 24.2654 43.25 25.2085C43.5638 24.2654 43.9308 23.3436 44.335 22.4484C46.4891 21.5212 50.3398 20.1092 55.5946 19.0435Z" fill="#8B5E3C"/>
<path d="M84.3153 18.3187C80.9326 17.7006 77.1085 17.2157 73.0025 17.0346V5.00812C72.7791 4.99747 72.5504 4.98148 72.327 4.97083V16.7148V17.6367C76.1937 17.7486 80.3635 18.1589 84.7993 18.9848V18.9901H84.8046C85.1291 16.4111 85.7886 14.285 86.9215 12.905C87.6129 12.0577 88.4692 11.4876 89.4532 11.1998C89.2617 11.0506 89.0649 10.9068 88.8681 10.7629C86.1875 11.3171 84.8312 14.2104 84.3153 18.3187Z" fill="#8B5E3C"/>
<path d="M50.1426 55.2665C50.2011 55.3251 50.2596 55.3944 50.3181 55.453C50.9564 53.1191 52.2488 48.2062 53.4189 42.5367C55.2911 33.4409 56.0836 26.1835 55.791 21.1587H55.7857C55.7857 21.1268 55.7804 21.1001 55.7804 21.0735C47.9354 22.6987 43.4304 25.1125 43.3294 25.1711C43.3028 25.1871 43.2762 25.1924 43.2443 25.2084C43.239 25.2297 43.2283 25.2564 43.223 25.2777C44.3825 24.7715 48.7438 22.9971 55.4719 21.7129C56.0836 33.2704 50.8181 52.81 50.1426 55.2665Z" fill="#8B5E3C"/>
<path d="M98.0801 22.0274C96.426 21.404 92.6657 20.0985 87.5226 18.9635C88.4959 13.5071 90.9957 13.1821 91.7669 13.214C91.7084 13.1608 91.6552 13.1021 91.5967 13.0489C90.9106 12.3988 90.1979 11.786 89.4532 11.2052C90.1979 11.7913 90.9106 12.4041 91.5967 13.0595C91.5435 13.0648 91.4903 13.0648 91.4371 13.0595C90.1872 12.9423 89.2511 13.3153 88.5012 14.2211C87.5811 15.3401 87.0386 17.1412 86.778 19.3898C90.4851 20.1731 94.3624 21.2548 98.3939 22.6881C98.7556 23.514 99.08 24.3559 99.3673 25.2138C99.08 24.3506 98.7556 23.5087 98.3939 22.6881C98.2929 22.4643 98.1865 22.2459 98.0801 22.0274Z" fill="#8B5E3C"/>
<path d="M72.327 19.672V20.5778V64.1916C72.5557 64.1863 72.7791 64.165 73.0025 64.1543V20.3754C76.4809 20.4926 80.188 20.8336 84.0866 21.4943C83.7303 34.2348 88.9319 54.0995 89.884 57.6109C90.0754 57.4511 90.2722 57.2966 90.4637 57.1367C89.6499 54.286 83.9271 33.6806 84.6185 21.0361C84.6078 21.0361 84.5972 21.0308 84.5919 21.0308V21.0254C80.2199 20.1942 76.1246 19.7892 72.327 19.672Z" fill="#8B5E3C"/>
<path d="M87.1816 22.0805C91.1227 22.8958 95.2341 24.0468 99.4784 25.5974C99.4358 25.4695 99.4039 25.3416 99.3614 25.219C94.9149 23.5406 90.66 22.3203 86.6125 21.4518C86.1923 31.4161 89.9101 47.5561 92.1492 55.5915C92.2396 55.5009 92.3247 55.405 92.4152 55.3144C87.9794 38.2845 86.8625 28.1284 87.1816 22.0805Z" fill="#8B5E3C"/>
<path d="M57.5675 18.5798C57.5728 18.5798 57.5781 18.5798 57.5781 18.5798C57.5781 18.6011 57.5834 18.6171 57.5834 18.6384C61.2639 18.015 65.5135 17.594 70.2738 17.6047V16.6562V4.97083C70.0557 4.97615 69.8323 4.99214 69.6142 5.00812V16.9653C65.8805 16.9653 61.966 17.2477 57.977 17.9351C56.9292 12.2602 54.3337 11.2744 53.27 11.1146C53.1583 11.1998 53.0413 11.2851 52.9296 11.3757C53.8497 11.6368 54.6635 12.143 55.3442 12.9103C56.4452 14.1305 57.1792 16.0328 57.5675 18.5798Z" fill="#8B5E3C"/>
<path d="M100.654 24.7715C100.489 24.2759 100.313 23.791 100.122 23.3062C98.4413 19.0114 95.8352 15.1802 92.5429 12.063C92.1546 11.6953 91.7558 11.3383 91.3515 10.9867C86.1339 6.53203 79.4217 3.77719 72.0767 3.59602C71.8214 3.59069 71.5607 3.57471 71.3054 3.57471C71.0501 3.57471 70.7895 3.58536 70.5289 3.59602C63.0828 3.78252 56.2908 6.60663 51.036 11.1785C50.6424 11.5248 50.2541 11.8765 49.8765 12.2389C46.6747 15.3241 44.1323 19.086 42.4835 23.2955C42.2921 23.7857 42.1112 24.2813 41.9464 24.7822C40.9199 27.862 40.3561 31.155 40.3561 34.5813C40.3561 43.368 44.026 51.3021 49.9084 56.9503C50.3392 57.3659 50.786 57.7709 51.2381 58.1599C56.461 62.6305 63.1785 65.3853 70.5289 65.5665C70.7895 65.5718 71.0448 65.5878 71.3054 65.5878C71.5661 65.5878 71.8214 65.5718 72.082 65.5665C79.443 65.3853 86.1658 62.6199 91.3941 58.1386C91.7877 57.7976 92.1759 57.4512 92.5536 57.0942C98.5211 51.4407 102.255 43.4426 102.255 34.5813C102.249 31.155 101.686 27.8567 100.654 24.7715ZM84.6181 21.0362C83.9267 33.6807 89.6495 54.2861 90.4633 57.1368C90.2718 57.2967 90.075 57.4565 89.8836 57.6111C85.2138 61.3996 79.3792 63.7921 73.0021 64.1545C72.7787 64.1651 72.55 64.1864 72.3266 64.1918V20.578V19.6721C76.1242 19.7893 80.2195 20.1943 84.5915 21.0256V21.0309C84.6021 21.0309 84.6128 21.0362 84.6181 21.0362ZM53.2805 11.1092C57.8545 7.57108 63.4923 5.3491 69.6194 5.00275C69.8375 4.99209 70.0556 4.9761 70.2789 4.96545V16.6509V17.5993C65.524 17.5887 61.2691 18.0096 57.5886 18.6331C57.5886 18.6117 57.5833 18.5958 57.5833 18.5744C57.5779 18.5744 57.5726 18.5744 57.5726 18.5744C57.1844 16.0274 56.4504 14.1198 55.3547 12.8943C54.6739 12.1323 53.8655 11.6261 52.9401 11.3597C53.0518 11.2797 53.1634 11.1998 53.2805 11.1092ZM57.8013 20.6792H57.796C57.796 20.6739 57.796 20.6685 57.796 20.6632C61.3968 20.0451 65.5826 19.6242 70.2843 19.6401V20.5193V64.1971C70.0662 64.1918 69.8428 64.1704 69.6247 64.1598C63.003 63.7868 56.961 61.2238 52.2008 57.1794C52.1369 57.1262 52.0731 57.0782 52.0146 57.0249C52.4667 55.4264 54.0357 49.7195 55.4292 42.9523C57.3971 33.377 58.179 25.9438 57.8013 20.6792ZM41.7177 34.5813C41.7177 31.3309 42.2495 28.2084 43.2228 25.2777C43.2282 25.2564 43.2388 25.2297 43.2441 25.2084C43.5579 24.2653 43.9196 23.3435 44.3238 22.4483C44.4089 22.2618 44.5046 22.0753 44.5897 21.8941C46.1375 18.6331 48.2543 15.7024 50.8179 13.23C50.8764 13.2353 50.9296 13.2353 50.9881 13.23C52.1742 13.1234 53.0996 13.4591 53.823 14.269C54.6846 15.2388 55.2696 16.8427 55.5834 19.0274H55.5888C55.5888 19.0327 55.5888 19.038 55.5888 19.038C50.3339 20.1037 46.4832 21.5211 44.3238 22.4376C43.9196 23.3381 43.5526 24.2546 43.2388 25.1978C43.2654 25.1871 43.2973 25.1765 43.3239 25.1605C43.425 25.1072 47.9299 22.688 55.7749 21.0629C55.7749 21.0948 55.7802 21.1215 55.7802 21.1481H55.7856C56.0781 26.1729 55.2856 33.4303 53.4134 42.5207C52.2433 48.1903 50.9562 53.1031 50.3126 55.437C50.2541 55.3784 50.1956 55.3145 50.1371 55.2505C44.9355 49.922 41.7177 42.622 41.7177 34.5813ZM92.4206 55.3038C92.3302 55.3944 92.2451 55.4903 92.1546 55.5809C89.9155 47.5455 86.1977 31.4055 86.6179 21.4412C90.6654 22.3151 94.9204 23.53 99.3668 25.2084C99.0796 24.3452 98.7551 23.5033 98.3935 22.6827C94.3619 21.2494 90.4846 20.1677 86.7775 19.3844C87.0434 17.1357 87.5859 15.3347 88.5007 14.2157C89.2453 13.3046 90.1867 12.9369 91.4366 13.0541C91.4898 13.0594 91.543 13.0541 91.5962 13.0541C90.9101 12.404 90.1974 11.7859 89.4528 11.1998C88.4741 11.4929 87.6125 12.0577 86.9211 12.9049C85.7882 14.285 85.1234 16.4057 84.8042 18.9901H84.7989V18.9847C80.3631 18.1535 76.1933 17.7485 72.3266 17.6366V16.7148V4.97077C72.5553 4.9761 72.7787 4.99742 73.0021 5.00807C78.9218 5.3491 84.3787 7.43254 88.8677 10.7629C89.0645 10.9067 89.2613 11.0506 89.4528 11.1998C90.1974 11.7806 90.9101 12.3934 91.5962 13.0435C91.6547 13.0967 91.7079 13.1554 91.7664 13.2086C94.3779 15.7184 96.5266 18.7023 98.085 22.022C98.186 22.2405 98.2977 22.4589 98.3935 22.6827C98.7551 23.5086 99.0796 24.3505 99.3668 25.2084C99.4093 25.331 99.4466 25.4589 99.4838 25.5868C100.388 28.4215 100.888 31.4428 100.888 34.5759C100.888 42.6433 97.6488 49.9593 92.4206 55.3038Z" fill="#3C2913"/>
<g opacity="0.35">
<path d="M41.7175 34.6718C41.7175 51.3927 55.2482 64.9484 71.9382 64.9484C72.3584 64.9484 72.7733 64.9377 73.1881 64.9217C78.5068 64.7033 83.4744 63.1047 87.74 60.4777L90.0271 58.1492C35.4521 56.0338 55.6365 9.17493 55.6365 9.17493C47.2649 14.5567 41.7175 23.9668 41.7175 34.6718Z" fill="#1C120A"/>
</g>
<path d="M34.2029 30.4037V39.0466H40.1704V43.027C37.6706 43.1389 34.9262 43.1921 32.0063 43.1921C31.6233 43.1921 31.4744 43.0909 31.3893 43.0003C31.3042 42.9097 31.1872 42.7392 31.1872 42.3023V27.148C31.1872 25.9811 31.5063 25.7839 32.4637 25.7839H48.6377V16.1926H30.634C27.0227 16.1926 24.3101 17.0985 22.5709 18.8942C20.8424 20.6739 19.9701 23.45 19.9701 27.148V42.3023C19.9701 45.7818 20.8211 48.4247 22.5018 50.1512C24.1931 51.8936 26.7727 52.7781 30.1766 52.7781C36.1974 52.7781 42.8936 52.3785 50.0844 51.5845L51.3981 51.4407V30.4037H34.2029ZM49.9249 49.8421C49.9195 49.8421 49.9195 49.8421 49.9142 49.8421C42.7553 50.6307 36.1761 51.025 30.1766 51.025C27.1769 51.025 24.9696 50.3004 23.5655 48.8457C22.1561 47.391 21.454 45.1211 21.454 42.0252V26.8709C21.454 26.5459 21.4646 26.2369 21.4806 25.9331C21.6082 23.1037 22.3209 21.0043 23.6347 19.6508C25.0867 18.1535 27.4216 17.4022 30.6394 17.4022H47.1698V24.0309H47.1592H32.4796C30.6447 24.0309 29.7245 24.9793 29.7245 26.8709V27.0042V42.0252C29.7245 42.7499 29.932 43.3254 30.3468 43.7516C30.7617 44.1779 31.3201 44.3911 32.0222 44.3911C35.5379 44.3911 38.7503 44.3111 41.6543 44.1566C41.6596 44.1566 41.6596 44.1566 41.665 44.1566V37.2882H35.6921V31.8851V31.6027H49.9249V49.8421Z" fill="#F7941D"/>
<path d="M41.6594 37.2882V44.1566C41.6541 44.1566 41.6541 44.1566 41.6487 44.1566C38.7447 44.3164 35.5323 44.391 32.0166 44.391C31.3146 44.391 30.7561 44.1779 30.3412 43.7516C29.9264 43.3253 29.719 42.7499 29.719 42.0252V27.0041V26.8709C29.719 24.974 30.6391 24.0308 32.474 24.0308H47.1589H47.1695V17.3969H30.6391C27.4266 17.3969 25.0917 18.1482 23.6344 19.6455C22.3207 20.9989 21.608 23.0983 21.4803 25.9278C21.4644 26.2368 21.4537 26.5406 21.4537 26.8656V42.0199C21.4537 45.1157 22.1558 47.3857 23.5652 48.8403C24.9747 50.295 27.1766 51.0197 30.1764 51.0197C36.1758 51.0197 42.755 50.6254 49.914 49.8368C49.9193 49.8368 49.9193 49.8368 49.9246 49.8368V31.6026H35.6918V31.885V37.2882H41.6594Z" fill="#3C2913"/>
<path d="M40.0482 71.9608C40.0854 71.9874 40.1067 72.0354 40.1067 72.078L39.6067 78.6321L49.5261 74.0442L42.7341 72.5363C42.6862 72.5256 42.6543 72.4883 42.6384 72.4404C42.6277 72.4297 42.6065 72.419 42.6011 72.403C42.6011 72.403 42.6011 72.403 42.5958 72.3977L42.5746 72.3231C41.6438 69.7015 40.8673 67.4262 40.2663 65.5879L34.7933 68.2841L40.0482 71.9608Z" fill="#F7941D"/>
<path d="M97.8567 72.419C97.846 72.4297 97.8407 72.4403 97.8248 72.451C97.8141 72.4617 97.8035 72.467 97.7875 72.4723C97.7822 72.4723 97.7822 72.4776 97.7769 72.4776L90.8201 74.0389L100.931 78.6214L100.426 72.0673C100.42 72.0194 100.442 71.9714 100.484 71.9448L105.84 68.2735L100.537 65.7104C99.8033 67.5594 98.8991 69.8187 97.8673 72.3977C97.8726 72.4084 97.862 72.4137 97.8567 72.419Z" fill="#F7941D"/>
<path d="M57.1317 68.5079C70.5188 66.3552 84.1559 67.5967 97.676 72.1846C100.33 65.5666 102.128 61.0107 102.34 60.4192C102.42 60.1954 102.463 59.9663 102.468 59.7319C102.479 59.2736 102.367 58.9912 102.277 58.8367C101.957 58.2932 101.372 58.128 101.202 58.0907C94.4209 56.4655 87.4694 55.3731 80.5392 54.8509C77.2682 54.6058 73.9919 54.4833 70.7156 54.4833C60.3016 54.4833 49.8664 55.7248 39.5907 58.1972C39.4365 58.2345 39.3301 58.2985 39.2663 58.3518C38.7291 58.7994 38.9631 60.302 39.0961 60.8455C39.4258 62.1883 40.7289 66.3072 42.8138 72.1899C47.4677 70.5221 52.2864 69.2859 57.1317 68.5079Z" fill="#F7941D"/>
<path d="M106.239 68.2468C106.234 68.1988 106.207 68.1562 106.165 68.1349L100.639 65.4653C101.756 62.6625 102.458 60.8668 102.585 60.5098C102.676 60.2593 102.724 59.9982 102.729 59.7318C102.74 59.2203 102.607 58.8899 102.5 58.7034C102.128 58.0693 101.452 57.8775 101.256 57.8295C94.4636 56.199 87.4962 55.112 80.5553 54.5845C66.865 53.5507 53.0631 54.6804 39.5217 57.9361C39.3249 57.9841 39.1813 58.0693 39.0962 58.1386L39.0643 58.1652C38.325 58.7887 38.809 60.8188 38.8303 60.9041C39.0058 61.6288 39.4685 63.158 40.1813 65.3321L34.4743 68.1455C34.4318 68.1668 34.4052 68.2095 34.3999 68.2574C34.3945 68.3054 34.4158 68.348 34.4584 68.3746L39.8355 72.1312L39.3249 78.8345C39.3196 78.8825 39.3409 78.9251 39.3834 78.9517C39.4047 78.9677 39.4313 78.973 39.4579 78.973C39.4792 78.973 39.4951 78.9677 39.5111 78.9624L49.9836 74.1188C50.0368 74.0975 50.0633 74.0388 50.058 73.9856C50.058 73.9696 50.0474 73.9589 50.0421 73.9429L48.755 70.5966C51.5366 69.8346 54.3502 69.2219 57.1744 68.7636C68.5511 66.9359 80.1139 67.57 91.6288 70.6339L90.2885 73.9376C90.2832 73.9483 90.2725 73.9589 90.2725 73.9749C90.2725 73.9855 90.2778 73.9909 90.2832 73.9962C90.2832 74.0229 90.2938 74.0495 90.3098 74.0708C90.3204 74.0815 90.331 74.0975 90.347 74.1028L101.027 78.9464C101.043 78.957 101.064 78.957 101.08 78.957C101.107 78.957 101.133 78.9464 101.155 78.9304C101.192 78.9038 101.213 78.8558 101.213 78.8132L100.697 72.1099L106.181 68.3533C106.223 68.3373 106.244 68.2947 106.239 68.2468ZM39.6068 78.632L40.1068 72.0779C40.1121 72.03 40.0908 71.9874 40.0483 71.9607L34.7934 68.2894L40.2663 65.5932C40.8727 67.4315 41.6439 69.7068 42.5747 72.3284L42.5959 72.403C42.5959 72.403 42.5959 72.403 42.6012 72.4083C42.6066 72.4243 42.6225 72.435 42.6385 72.4456C42.6544 72.4936 42.6863 72.5309 42.7342 72.5415L49.5262 74.0495L39.6068 78.632ZM57.1319 68.5079C52.2866 69.2858 47.4678 70.5274 42.8087 72.1898C40.7238 66.3072 39.4207 62.1882 39.0909 60.8455C38.958 60.302 38.7239 58.8046 39.2611 58.3517C39.3249 58.3038 39.4366 58.2345 39.5856 58.1972C49.8666 55.7248 60.2965 54.4832 70.7104 54.4832C73.9867 54.4832 77.2684 54.6058 80.534 54.8509C87.4643 55.3731 94.4158 56.4601 101.197 58.0906C101.367 58.1279 101.952 58.2984 102.271 58.8366C102.362 58.9965 102.474 59.2736 102.463 59.7318C102.458 59.9609 102.415 60.1954 102.335 60.4192C102.123 61.0106 100.325 65.5665 97.6708 72.1845C84.1561 67.5913 70.519 66.3551 57.1319 68.5079ZM100.49 71.9501C100.452 71.9767 100.431 72.0247 100.431 72.0726L100.936 78.6267L90.8257 74.0442L97.7825 72.4829C97.7878 72.4829 97.7878 72.4776 97.7931 72.4776C97.8091 72.4723 97.8197 72.4669 97.8304 72.4563C97.841 72.4456 97.8516 72.435 97.8623 72.4243C97.8676 72.419 97.8782 72.4136 97.8836 72.403C98.9154 69.8293 99.8195 67.5647 100.554 65.7157L105.856 68.2787L100.49 71.9501Z" fill="#8B5E3C"/>
<path d="M54.8881 64.501L51.0055 58.224L48.1121 58.8208L46.6176 68.6998L49.7662 68.0551L49.9843 66.4565L52.2873 65.9823L53.1117 67.3677L56.2603 66.723L56.1486 66.5418C56.005 66.4725 55.872 66.3979 55.755 66.302C55.2976 65.9184 55.0104 65.3109 54.8881 64.501ZM53.3191 66.8828L53.2606 66.7869L53.2287 66.7922L52.4628 65.5027L49.6067 66.0889L49.3886 67.6874L47.1335 68.151L47.1494 68.0391L47.043 68.0604L48.3993 59.0766L50.7129 58.6023L50.7714 58.6982L50.8034 58.6929L55.5795 66.4139L53.3191 66.8828Z" fill="#8B5E3C"/>
<path d="M51.5637 63.9627L50.149 61.4956L49.8192 64.3197L51.5637 63.9627ZM50.9946 63.7549L50.2979 63.8988L50.4309 62.7691L50.9946 63.7549Z" fill="#8B5E3C"/>
<path d="M49.5108 66.0035L49.2928 67.602L47.144 68.0443L47.1281 68.1562L49.3832 67.6926L49.6012 66.094L52.4574 65.5079L52.3989 65.412L49.5108 66.0035Z" fill="#8B5E3C"/>
<path d="M50.1494 61.501L50.0643 61.3518L49.7133 64.3464L49.8196 64.3251L50.1494 61.501Z" fill="#8B5E3C"/>
<path d="M50.7659 58.7034L55.4835 66.3285L53.2603 66.7868L53.3188 66.8827L55.574 66.4191L50.7978 58.6981L50.7659 58.7034Z" fill="#8B5E3C"/>
<path d="M58.1378 60.8189L58.4037 63.1155L59.9302 62.9396L60.0366 63.8668C59.409 63.968 58.7229 64.0586 57.957 64.1492C57.8985 64.1492 57.8825 64.1332 57.8719 64.1279C57.8612 64.1172 57.8293 64.0906 57.8134 63.984L57.3666 60.1102C57.3347 59.8438 57.3932 59.8012 57.6113 59.7745L61.7864 59.2896L61.4939 56.7479L56.8454 57.2861C55.9093 57.3927 55.2338 57.7124 54.8349 58.2346C54.4413 58.7514 54.2924 59.4974 54.4041 60.4512L54.8509 64.3251C54.8562 64.3837 54.8721 64.437 54.8828 64.4956C55.0051 65.3055 55.2923 65.913 55.7444 66.2859C55.8614 66.3819 55.9944 66.4618 56.138 66.5257C56.4677 66.6856 56.856 66.7708 57.3028 66.7708C57.4677 66.7708 57.6379 66.7602 57.8187 66.7389C59.3611 66.5577 61.0631 66.2593 62.8768 65.8437L63.2491 65.7584L62.6161 60.2967L58.1378 60.8189ZM57.7761 66.3179C57.0103 66.4085 56.4252 66.2859 56.021 65.9556C55.9944 65.9343 55.9731 65.9023 55.9465 65.8757C55.9412 65.8703 55.9359 65.8703 55.9306 65.865C55.5263 65.5346 55.2817 64.9751 55.1913 64.1865L54.7445 60.3127C54.6488 59.4655 54.7605 58.8314 55.0902 58.4051C55.42 57.9788 55.9891 57.7177 56.8135 57.6218L61.0365 57.1316L61.0471 57.2328L61.1269 57.2222L61.3237 58.9166L57.5687 59.3536C57.1007 59.4068 56.8932 59.6786 56.9464 60.1635L57.3932 64.0373C57.4092 64.1865 57.4677 64.2984 57.5474 64.389C57.6591 64.4689 57.7974 64.5062 57.9623 64.4849C58.8612 64.3783 59.6802 64.2664 60.4195 64.1386L60.2281 62.4814L58.7814 62.6519L58.7707 62.5507L58.691 62.5613L58.5208 61.1066L62.1587 60.6857L62.1694 60.7869L62.2491 60.7763L62.7863 65.4334C60.978 65.8437 59.3079 66.1421 57.7761 66.3179Z" fill="#8B5E3C"/>
<path d="M57.4728 59.2629C57.0048 59.3162 56.7974 59.588 56.8505 60.0729L57.2973 63.9467C57.3186 64.1332 57.3877 64.2717 57.5047 64.3676C57.5154 64.3783 57.5313 64.3783 57.542 64.3836C57.4622 64.2931 57.409 64.1812 57.3877 64.032L56.941 60.1581C56.8825 59.6732 57.0899 59.4068 57.5633 59.3482L61.3182 58.9113L61.1214 57.2168L61.0417 57.2275L61.2278 58.8207L57.4728 59.2629Z" fill="#8B5E3C"/>
<path d="M60.2036 62.381L58.7614 62.5486L58.773 62.6491L60.2153 62.4816L60.2036 62.381Z" fill="#8B5E3C"/>
<path d="M62.1641 60.7815L62.6906 65.3427C60.8823 65.7583 59.2122 66.0514 57.6804 66.2326C56.9252 66.3178 56.3454 66.2006 55.9465 65.8862C55.9731 65.9128 55.9944 65.9448 56.021 65.9661C56.4252 66.2965 57.0103 66.4137 57.7762 66.3285C59.3079 66.1526 60.978 65.8542 62.7863 65.4386L62.2492 60.7815H62.1641Z" fill="#8B5E3C"/>
<path d="M70.7641 64.4742L70.7269 63.2273L66.3017 63.3606L66.2751 62.4494L69.7589 62.3481L69.6844 59.7905L66.2007 59.8917L66.1794 59.0978L70.6045 58.9645L70.5301 56.4069L63.1265 56.6253L63.403 66.0035L70.8066 65.785V65.7797L70.6843 65.7744L70.7641 64.4742ZM63.8126 65.5666L63.8073 65.476H63.7168L63.4669 56.9504L70.0195 56.7585L70.0248 56.8491H70.1152L70.1631 58.5542L65.7379 58.6875L65.7858 60.2381L69.1791 60.1368L69.1844 60.2274H69.2749L69.3227 61.9325L65.839 62.0338L65.8869 63.7069L70.2269 63.579L70.2322 63.6696H70.3226L70.3705 65.3747L63.8126 65.5666Z" fill="#8B5E3C"/>
<path d="M65.7435 61.9432L65.7967 63.7069H65.8871L65.834 62.0284L69.3177 61.9272L69.2698 60.222L69.1794 60.2274L69.2273 61.8366L65.7435 61.9432Z" fill="#8B5E3C"/>
<path d="M65.642 58.5915L65.6952 60.238L65.7803 60.2327L65.7377 58.6821L70.1628 58.5542L70.115 56.8491H70.0246L70.0724 58.4637L65.642 58.5915Z" fill="#8B5E3C"/>
<path d="M70.2271 63.6696L70.2749 65.2788L63.8127 65.4707V65.5666L70.3654 65.3694L70.3122 63.6643L70.2271 63.6696Z" fill="#8B5E3C"/>
<path d="M76.3382 56.732L76.0935 60.6218L74.1841 56.5988L71.2695 56.4176L70.7642 64.4796L70.6844 65.7798L70.8068 65.7851L73.6576 65.9663L73.9022 62.0765L75.8117 66.0995L78.7263 66.2807L79.3113 56.9185L76.3382 56.732ZM78.3221 65.8277L76.0829 65.6892L76.0404 65.6039L75.9872 65.5986L73.5619 60.4939L73.248 65.508L71.1259 65.3748L71.1312 65.2896L71.0355 65.2842L71.5674 56.7746L73.8065 56.9132L73.8491 56.9984L73.9022 57.0037L76.3276 62.1084L76.6414 57.0943L78.7635 57.2275L78.7582 57.3128L78.8539 57.3181L78.3221 65.8277Z" fill="#8B5E3C"/>
<path d="M76.3274 62.1084L73.9074 57.0037H73.8542L76.3221 62.199L76.3274 62.1084Z" fill="#8B5E3C"/>
<path d="M78.7582 57.3126L78.2316 65.737L76.0457 65.5984L76.0829 65.6837L78.322 65.8276L78.8539 57.318L78.7582 57.3126Z" fill="#8B5E3C"/>
<path d="M73.1631 65.4173L71.1367 65.2894L71.1313 65.3747L73.2535 65.5079L73.5673 60.4938L73.4822 60.3126L73.1631 65.4173Z" fill="#8B5E3C"/>
<path d="M83.05 57.4885C82.7947 57.4459 82.5501 57.4246 82.3214 57.4246C81.731 57.4246 81.2364 57.5684 80.8588 57.8508C80.3375 58.2398 79.9971 58.9219 79.8482 59.8703L79.2312 63.7175C79.0876 64.6127 79.1993 65.3321 79.561 65.8489C79.928 66.3711 80.5556 66.7068 81.4332 66.8454C82.5873 67.0319 84.0659 67.181 85.8264 67.2983L86.2147 67.3249L86.6082 64.8685L86.1562 64.8259C85.6456 64.7779 85.2147 64.7353 84.8743 64.7086C84.5393 64.6767 84.2627 64.65 84.0553 64.6234L83.7308 64.5861C83.7308 64.5861 83.0075 64.4955 82.816 64.4688C82.6246 64.4422 82.449 64.4156 82.2895 64.3889C82.2256 64.3783 82.2097 64.3569 82.1937 64.341C82.1884 64.3303 82.1618 64.293 82.1778 64.1864L82.7947 60.3393C82.8373 60.0728 82.9171 60.0728 83.0128 60.0728C83.0447 60.0728 83.082 60.0782 83.1245 60.0835L87.2784 60.7495L87.5124 59.2736L87.2784 58.1599L83.05 57.4885ZM86.9114 60.2647L83.1777 59.6679C82.7096 59.5933 82.4384 59.7957 82.3639 60.2753L81.747 64.1225C81.7204 64.3037 81.747 64.4582 81.8321 64.5807C81.9118 64.65 82.0023 64.7033 82.1193 64.7246C82.2842 64.7513 82.4597 64.7779 82.6565 64.8045C82.8533 64.8312 83.0554 64.8578 83.2681 64.8845C83.4809 64.9111 83.6936 64.9378 83.9064 64.9644C84.1191 64.991 84.401 65.0177 84.7414 65.0497C85.0818 65.0816 85.5073 65.1189 86.0179 65.1669L86.0072 65.2468C86.0445 65.2521 86.0764 65.2521 86.1136 65.2575L85.853 66.8827C84.0925 66.7654 82.6405 66.6162 81.497 66.4297C80.8747 66.3285 80.4173 66.126 80.1035 65.8223C79.9918 65.7317 79.8908 65.6305 79.811 65.5132C79.5131 65.0869 79.428 64.4795 79.5504 63.6962L80.1673 59.849C80.3003 59.0071 80.5822 58.4263 81.013 58.1013C81.4438 57.7816 82.0661 57.6857 82.8852 57.8135L87.0816 58.4849L87.071 58.5595L87.172 58.5755L86.9114 60.2647Z" fill="#8B5E3C"/>
<path d="M86.8211 60.1742L83.0873 59.5774C82.6193 59.5028 82.348 59.7052 82.2736 60.1848L81.6566 64.032C81.63 64.2185 81.6566 64.373 81.7417 64.4956C81.7683 64.5329 81.8002 64.5542 81.8321 64.5808C81.747 64.4583 81.7204 64.3037 81.747 64.1226L82.364 60.2754C82.4385 59.7958 82.715 59.5933 83.1778 59.6679L86.9115 60.2647L87.1827 58.5809L87.0817 58.5649L86.8211 60.1742Z" fill="#8B5E3C"/>
<path d="M81.4127 66.3392C80.8543 66.2486 80.4235 66.0781 80.115 65.8223C80.4288 66.1207 80.8862 66.3285 81.5085 66.4298C82.652 66.6109 84.104 66.7654 85.8645 66.8827L86.1251 65.2575C86.0879 65.2522 86.0559 65.2522 86.0187 65.2468L85.7741 66.7921C84.0029 66.6749 82.5563 66.5203 81.4127 66.3392Z" fill="#8B5E3C"/>
<path d="M93.5968 59.7426L91.0758 62.7692L90.3471 58.89L87.2463 58.0801L87.2623 58.1547L87.4963 59.2683L88.8153 65.5187L88.1665 68.0124L91.0492 68.7637L91.6981 66.27L96.6923 60.5472L93.5968 59.7426ZM91.3151 66.0675L90.746 68.2469L88.6877 67.7087L88.7037 67.6447L88.5973 67.6181L89.1664 65.4387L87.7144 58.5756L89.8844 59.1404L89.895 59.2097L89.9748 59.231L90.7886 63.5684L93.6553 60.1262L95.8254 60.691L95.7775 60.7443L95.9158 60.7816L91.3151 66.0675Z" fill="#8B5E3C"/>
<path d="M90.7945 63.5738L89.9808 59.2364L89.901 59.2151L90.7307 63.6484L90.7945 63.5738Z" fill="#8B5E3C"/>
<path d="M95.7835 60.7496L91.2254 65.9769L90.6563 68.1616L88.7097 67.65L88.6937 67.714L90.7467 68.2468L91.3158 66.0675L95.9218 60.7869L95.7835 60.7496Z" fill="#8B5E3C"/>
<path d="M50.7664 58.7035L50.7079 58.6075L48.3942 59.0818L47.038 68.0656L47.1443 68.0443L49.2931 67.6021L49.5111 66.0035L52.4045 65.412L52.463 65.508L53.2289 66.7975L53.2608 66.7921L55.484 66.3339L50.7664 58.7035ZM50.0643 61.3517L50.1494 61.5009L51.5642 63.968L49.8196 64.325L49.7133 64.3463L50.0643 61.3517Z" fill="#3C2913"/>
<path d="M57.6805 66.2273C59.2123 66.0515 60.8824 65.7531 62.6907 65.3374L62.1642 60.7762L62.1535 60.675L58.5156 61.096L58.6858 62.5506L58.7655 62.54L60.2122 62.3695L60.2229 62.4707L60.4143 64.1279C59.675 64.2558 58.856 64.373 57.9571 64.4742C57.7922 64.4955 57.6593 64.4582 57.5422 64.3783C57.5316 64.373 57.5157 64.3677 57.505 64.3623C57.388 64.2664 57.3189 64.1225 57.2976 63.9414L56.8508 60.0676C56.7923 59.5827 56.9997 59.3162 57.4731 59.2576L61.2281 58.8207L61.0419 57.2275L61.0313 57.1262L56.8083 57.6164C55.9892 57.7124 55.4148 57.9735 55.085 58.3997C54.7553 58.826 54.6436 59.4654 54.7393 60.3073L55.1861 64.1812C55.2765 64.9698 55.5265 65.5293 55.9254 65.8596C55.9307 65.865 55.936 65.865 55.9413 65.8703C56.3509 66.2007 56.9253 66.3179 57.6805 66.2273Z" fill="#3C2913"/>
<path d="M70.2279 63.6696L70.2225 63.5737L65.8878 63.7069H65.7974L65.7442 61.9432L69.228 61.8366L69.1801 60.2274L69.1748 60.1315L65.7814 60.2327L65.6964 60.2381L65.6432 58.5916L70.0736 58.4637L70.0258 56.8491L70.0204 56.7585L63.4731 56.9504L63.7231 65.476L63.8135 65.4706L70.2757 65.2788L70.2279 63.6696Z" fill="#3C2913"/>
<path d="M78.7582 57.3127L78.7635 57.2275L76.6413 57.0942L76.3275 62.1084L76.3222 62.199L73.8544 57.0037L73.8118 56.9131L71.5726 56.7745L71.0408 65.2842L71.1365 65.2895L73.1629 65.4174L73.482 60.3127L73.5671 60.4938L75.9925 65.5985H76.0456L78.2316 65.7371L78.7582 57.3127Z" fill="#3C2913"/>
<path d="M81.6571 64.0374L82.274 60.1902C82.3485 59.7106 82.6251 59.5081 83.0878 59.5827L86.8215 60.1795L87.0768 58.5703L87.0874 58.4957L82.891 57.8243C82.0719 57.6911 81.4496 57.787 81.0188 58.1121C80.588 58.4318 80.3061 59.0179 80.1732 59.8598L79.5562 63.707C79.4285 64.4903 79.519 65.0977 79.8168 65.524C79.8966 65.6359 79.9976 65.7371 80.1093 65.8331C80.4178 66.0835 80.8486 66.2593 81.4071 66.3499C82.5506 66.5311 84.0026 66.6856 85.7631 66.8029L86.0077 65.2576L86.0184 65.1777C85.5078 65.1297 85.0823 65.0871 84.7419 65.0604C84.4015 65.0285 84.1196 65.0018 83.9069 64.9752C83.6941 64.9485 83.4761 64.9219 83.2686 64.8952C83.0559 64.8686 82.8538 64.842 82.657 64.8153C82.4602 64.7887 82.2847 64.762 82.1198 64.7354C82.0028 64.7141 81.9124 64.6608 81.8326 64.5915C81.8007 64.5649 81.7688 64.5436 81.7422 64.5063C81.6571 64.3731 81.6305 64.2185 81.6571 64.0374Z" fill="#3C2913"/>
<path d="M91.2252 65.9769L95.7833 60.7496L95.8311 60.6963L93.6611 60.1315L90.7944 63.5737L90.7305 63.6483L89.9008 59.215L89.8849 59.1458L87.7148 58.5809L89.1668 65.444L88.5977 67.6234L88.7094 67.65L90.6561 68.1616L91.2252 65.9769Z" fill="#3C2913"/>
</svg>
