<svg width="30" height="30" viewBox="0 0 30 30" fill="none" xmlns="http://www.w3.org/2000/svg">
<path d="M11.2554 15.4348H12.9914V22.5816C12.9914 22.7227 13.1058 22.837 13.2469 22.837H16.1903C16.3314 22.837 16.4457 22.7227 16.4457 22.5816V15.4685H18.4414C18.5712 15.4685 18.6803 15.3711 18.6952 15.2422L18.9983 12.6111C19.0066 12.5387 18.9837 12.4662 18.9352 12.4119C18.8867 12.3576 18.8174 12.3265 18.7446 12.3265H16.4458V10.6772C16.4458 10.18 16.7135 9.92786 17.2416 9.92786C17.3168 9.92786 18.7446 9.92786 18.7446 9.92786C18.8857 9.92786 19 9.81347 19 9.67242V7.25733C19 7.11622 18.8857 7.00189 18.7446 7.00189H16.6732C16.6586 7.00118 16.6262 7 16.5784 7C16.219 7 14.9697 7.07055 13.9829 7.97837C12.8896 8.98438 13.0415 10.1889 13.0779 10.3978V12.3264H11.2554C11.1143 12.3264 11 12.4407 11 12.5818V15.1793C11 15.3204 11.1143 15.4348 11.2554 15.4348Z" fill="white"/>
<rect x="0.5" y="0.5" width="29" height="28.837" stroke="#FC8800"/>
</svg>
