<svg width="30" height="30" viewBox="0 0 30 30" fill="none" xmlns="http://www.w3.org/2000/svg">
<path d="M18.1364 8H11.8634C9.73313 8 8 9.73321 8 11.8635V18.1365C8 20.2669 9.73313 22 11.8634 22H18.1364C20.2669 22 22 20.2668 22 18.1365V11.8635C22.0001 9.73321 20.2669 8 18.1364 8ZM20.7579 18.1365C20.7579 19.582 19.582 20.7579 18.1365 20.7579H11.8634C10.418 20.7579 9.24215 19.582 9.24215 18.1365V11.8635C9.24215 10.4181 10.418 9.24215 11.8634 9.24215H18.1364C19.5819 9.24215 20.7579 10.4181 20.7579 11.8635V18.1365H20.7579Z" fill="white"/>
<path d="M15 11.3926C13.0108 11.3926 11.3926 13.0108 11.3926 15C11.3926 16.9891 13.0108 18.6073 15 18.6073C16.9892 18.6073 18.6075 16.9891 18.6075 15C18.6075 13.0108 16.9892 11.3926 15 11.3926ZM15 17.3651C13.6959 17.3651 12.6347 16.3041 12.6347 14.9999C12.6347 13.6957 13.6958 12.6346 15 12.6346C16.3043 12.6346 17.3653 13.6957 17.3653 14.9999C17.3653 16.3041 16.3042 17.3651 15 17.3651Z" fill="white"/>
<path d="M18.7586 10.3394C18.5192 10.3394 18.2841 10.4362 18.1151 10.606C17.9453 10.7749 17.8477 11.0101 17.8477 11.2503C17.8477 11.4897 17.9454 11.7248 18.1151 11.8945C18.2841 12.0635 18.5192 12.1612 18.7586 12.1612C18.9987 12.1612 19.2331 12.0635 19.4028 11.8945C19.5726 11.7248 19.6695 11.4896 19.6695 11.2503C19.6695 11.0101 19.5726 10.7749 19.4028 10.606C19.2339 10.4362 18.9987 10.3394 18.7586 10.3394Z" fill="white"/>
<rect x="0.5" y="0.5" width="29" height="29" stroke="#FC8800"/>
</svg>
