<svg width="15" height="15" viewBox="0 0 15 15" fill="none" xmlns="http://www.w3.org/2000/svg">
<path d="M2.94462 11.875C2.74446 11.875 2.56824 11.7964 2.41594 11.6393C2.26365 11.4821 2.1875 11.2972 2.1875 11.0846V3.92928C2.1875 3.71665 2.26365 3.52945 2.41594 3.36767C2.56824 3.20589 2.74446 3.125 2.94462 3.125H11.7559C11.9474 3.125 12.1193 3.20589 12.2716 3.36767C12.4239 3.52945 12.5 3.71665 12.5 3.92928V11.0846C12.5 11.2972 12.4239 11.4821 12.2716 11.6393C12.1193 11.7964 11.9474 11.875 11.7559 11.875H2.94462ZM7.34375 7.7288L11.7559 4.65036V3.92928L7.34375 6.92452L2.94462 3.92928V4.65036L7.34375 7.7288Z" fill="#D9D9D9"/>
</svg>
