<svg width="2037" height="1483" viewBox="0 0 2037 1483" fill="none" xmlns="http://www.w3.org/2000/svg">
<g opacity="0.5">
<path d="M2036.06 435.188V259.419H1488.42V956.628H1696.68V719.162H1963.64V543.394H1696.68V435.188H2036.06Z" fill="#F7941D"/>
<path d="M1675.93 933.898H1513.06V282.15H2015.31V412.458H1675.93V566.125H1942.89V696.432H1675.93V933.898Z" fill="#3C2913"/>
<path d="M706.325 343.954C551.728 375.903 462.848 423.668 460.856 424.716C460.332 425.03 459.808 425.134 459.179 425.449C439.789 483.375 429.099 545.386 429.099 609.807C429.099 769.654 493.872 914.731 598.579 1020.11C611.156 974.228 636.625 877.65 659.684 766.197C696.787 586.238 712.404 442.837 706.325 343.954Z" fill="#F7941D"/>
<path d="M746.057 336.516C753.604 440.113 738.092 586.133 699.311 774.262C671.851 907.293 640.931 1019.48 632.022 1050.9C729.392 1134.91 854.747 1187.18 992.049 1191.9V316.09C899.291 315.776 816.805 324.156 746.057 336.516Z" fill="#F7941D"/>
<path d="M667.648 210.504C653.394 194.582 635.157 187.983 611.784 190.078C610.631 190.182 609.478 190.078 608.43 190.078C554.976 241.405 511.374 302.788 480.455 371.189C522.904 353.067 598.787 325.099 702.341 304.045C696.262 261.097 684.732 229.568 667.648 210.504Z" fill="#F7941D"/>
<path d="M697.748 183.686C719.549 207.988 734.118 246.012 741.664 296.815C813.984 284.35 897.938 275.865 991.849 276.18V27.7151C863.14 32.1145 744.808 78.4136 650.269 153.519C668.401 158.651 684.332 168.602 697.748 183.686Z" fill="#F7941D"/>
<path d="M1423.03 1022.62C1529.2 917.035 1595.13 770.91 1595.13 609.701C1595.13 545.385 1584.44 483.479 1565.15 425.553C1477.53 392.557 1393.68 368.569 1313.92 351.495C1305.64 547.48 1378.9 864.765 1423.03 1022.62Z" fill="#F7941D"/>
<path d="M1412.04 186.41C1410.99 186.515 1409.94 186.515 1408.89 186.41C1384.26 184.106 1365.81 191.333 1351.04 209.141C1332.9 231.138 1322.11 266.648 1316.97 310.957C1390.03 326.355 1466.43 347.619 1545.98 375.796C1514.23 304.043 1468.42 239.727 1412.04 186.41Z" fill="#F7941D"/>
<path d="M1278.09 303.205C1284.38 252.402 1297.48 210.712 1319.91 183.582C1333.53 167.031 1350.51 155.928 1369.8 150.167C1275.89 77.0521 1159.23 32.0101 1032.3 27.6106V276.599C1108.5 278.903 1190.67 286.864 1278.09 303.205Z" fill="#F7941D"/>
<path d="M1274.52 343.428C1188.16 327.087 1107.24 319.021 1032.3 316.717V1191.89C1168.35 1187.28 1292.66 1135.85 1389.71 1053.21C1373.68 997.166 1260.9 591.892 1274.52 343.428Z" fill="#F7941D"/>
<g opacity="0.42">
<path d="M1321.99 139.901C1321.99 139.901 1284.68 152.052 1270.63 186.515C1270.63 186.515 1259.31 105.544 1080.08 73.5953C1080.08 73.7001 1203.87 68.9864 1321.99 139.901Z" fill="white"/>
</g>
<g opacity="0.42">
<path d="M1364.96 238.68C1367.16 233.652 1371.25 226.32 1378.69 219.721C1394.62 205.579 1413.8 205.37 1419.15 205.475C1427.22 211.341 1436.23 218.987 1445.04 228.834C1466.73 253.031 1476.48 278.694 1481.09 295.244C1471.87 285.084 1457.61 271.885 1437.6 260.573C1408.46 244.232 1381 239.937 1364.96 238.68Z" fill="white"/>
</g>
<path d="M631.912 1050.9C633.065 1051.95 634.323 1052.89 635.58 1053.94C739.344 694.862 764.918 478.031 757.162 347.095C822.564 337.249 897.085 330.44 978.942 329.707V1191.16C983.24 1191.37 987.537 1191.79 991.939 1191.9V333.268V315.985C899.391 315.67 816.799 323.946 745.842 336.097C745.842 336.201 745.842 336.306 745.842 336.411H745.947C753.493 440.007 737.981 586.027 699.201 774.156C671.74 907.397 640.821 1019.48 631.912 1050.9Z" fill="#8B5E3C"/>
<path d="M702.564 304.359C702.564 304.254 702.564 304.149 702.564 304.149H702.459C696.275 261.202 684.746 229.568 667.767 210.608C653.512 194.686 635.275 188.087 611.902 190.182C610.749 190.287 609.596 190.182 608.548 190.182C655.084 192.906 680.868 232.815 692.817 293.779C624.06 308.967 554.57 330.651 485.814 360.399C484.032 364.065 482.251 367.627 480.574 371.293C472.608 388.996 465.481 407.012 459.297 425.553C465.481 407.012 472.713 388.891 480.678 371.293C523.127 353.067 599.01 325.308 702.564 304.359Z" fill="#8B5E3C"/>
<path d="M1268.54 290.112C1201.88 277.962 1126.52 268.429 1045.61 264.868V28.4496C1041.21 28.2401 1036.7 27.9258 1032.3 27.7163V258.583V276.705C1108.5 278.904 1190.67 286.97 1278.08 303.206V303.311H1278.19C1284.58 252.612 1297.58 210.817 1319.9 183.687C1333.53 167.032 1350.4 155.824 1369.79 150.168C1366.02 147.235 1362.14 144.407 1358.26 141.578C1305.44 152.472 1278.71 209.351 1268.54 290.112Z" fill="#8B5E3C"/>
<path d="M595.126 1016.44C596.279 1017.59 597.432 1018.95 598.585 1020.11C611.162 974.227 636.631 877.648 659.69 766.196C696.584 587.389 712.2 444.721 706.436 345.943H706.331C706.331 345.314 706.226 344.791 706.226 344.267C551.629 376.215 462.854 423.667 460.863 424.819C460.339 425.133 459.815 425.238 459.186 425.552C459.081 425.971 458.871 426.495 458.767 426.914C481.615 416.963 567.561 382.081 700.147 356.837C712.2 584.037 608.437 968.151 595.126 1016.44Z" fill="#8B5E3C"/>
<path d="M1539.8 363.017C1507.2 350.762 1433.1 325.098 1331.75 302.787C1350.93 195.524 1400.19 189.134 1415.39 189.763C1414.23 188.715 1413.18 187.563 1412.03 186.515C1398.51 173.736 1384.47 161.69 1369.79 150.272C1384.47 161.795 1398.51 173.841 1412.03 186.725C1410.98 186.83 1409.94 186.83 1408.89 186.725C1384.26 184.42 1365.81 191.753 1351.03 209.56C1332.9 231.557 1322.21 266.963 1317.07 311.167C1390.13 326.565 1466.53 347.829 1545.98 376.006C1553.11 392.242 1559.5 408.793 1565.16 425.657C1559.5 408.688 1553.11 392.137 1545.98 376.006C1543.99 371.607 1541.89 367.312 1539.8 363.017Z" fill="#8B5E3C"/>
<path d="M1032.3 316.717V334.524V1191.89C1036.81 1191.79 1041.21 1191.37 1045.61 1191.16V330.543C1114.16 332.848 1187.21 339.552 1264.04 352.541C1257.01 602.995 1359.52 993.499 1378.28 1062.53C1382.05 1059.39 1385.93 1056.35 1389.71 1053.21C1373.67 997.166 1260.89 592.102 1274.52 343.532C1274.31 343.532 1274.1 343.428 1273.99 343.428V343.323C1187.84 326.982 1107.13 319.021 1032.3 316.717Z" fill="#8B5E3C"/>
<path d="M1325.03 364.064C1402.69 380.091 1483.71 402.717 1567.35 433.199C1566.51 430.685 1565.88 428.171 1565.04 425.761C1477.42 392.765 1393.57 368.778 1313.81 351.704C1305.53 547.584 1378.79 864.869 1422.92 1022.83C1424.7 1021.05 1426.38 1019.16 1428.16 1017.38C1340.75 682.606 1318.74 482.954 1325.03 364.064Z" fill="#8B5E3C"/>
<path d="M741.441 295.245C741.546 295.245 741.651 295.245 741.651 295.245C741.651 295.664 741.756 295.978 741.756 296.397C814.285 284.142 898.03 275.866 991.836 276.076V257.431V27.7163C987.539 27.8211 983.136 28.1353 978.839 28.4496V263.506C905.262 263.506 828.12 269.058 749.512 282.57C728.864 171.013 677.716 151.634 656.754 148.492C654.553 150.168 652.247 151.844 650.046 153.624C668.178 158.757 684.214 168.708 697.63 183.792C719.326 207.78 733.79 245.175 741.441 295.245Z" fill="#8B5E3C"/>
<path d="M1590.52 416.963C1587.27 407.221 1583.81 397.689 1580.03 388.157C1546.91 303.729 1495.56 228.415 1430.68 167.137C1423.03 159.909 1415.17 152.891 1407.2 145.977C1304.38 58.4071 1172.11 4.25194 1027.36 0.69048C1022.33 0.585731 1017.2 0.271484 1012.17 0.271484C1007.14 0.271484 1002 0.480982 996.864 0.69048C850.128 4.35669 716.284 59.8736 612.731 149.748C604.975 156.557 597.323 163.47 589.882 170.593C526.785 231.243 476.686 305.196 444.194 387.947C440.421 397.584 436.857 407.326 433.608 417.172C413.38 477.717 402.27 542.452 402.27 609.805C402.27 782.536 474.589 938.508 590.511 1049.54C599 1057.71 607.805 1065.67 616.714 1073.32C719.638 1161.2 852.015 1215.36 996.864 1218.92C1002 1219.03 1007.03 1219.34 1012.17 1219.34C1017.3 1219.34 1022.33 1219.03 1027.47 1218.92C1172.53 1215.36 1305.01 1160.99 1408.04 1072.9C1415.8 1066.2 1423.45 1059.39 1430.89 1052.37C1548.49 941.231 1622.06 784.003 1622.06 609.805C1621.96 542.452 1610.85 477.612 1590.52 416.963ZM1274.51 343.534C1260.88 592.103 1373.66 997.167 1389.7 1053.21C1385.92 1056.35 1382.05 1059.49 1378.27 1062.53C1286.25 1137.01 1171.27 1184.04 1045.6 1191.16C1041.2 1191.37 1036.69 1191.79 1032.29 1191.9V334.525V316.718C1107.13 319.022 1187.83 326.983 1273.99 343.324V343.429C1274.2 343.429 1274.4 343.534 1274.51 343.534ZM656.961 148.386C747.099 78.8332 858.199 35.1529 978.942 28.3442C983.239 28.1347 987.536 27.8205 991.938 27.611V257.325V275.971C898.237 275.761 814.388 284.036 741.858 296.292C741.858 295.873 741.754 295.559 741.754 295.14C741.649 295.14 741.544 295.14 741.544 295.14C733.893 245.07 719.429 207.57 697.838 183.477C684.422 168.498 668.49 158.547 650.253 153.31C652.454 151.738 654.655 150.167 656.961 148.386ZM746.051 336.516H745.946C745.946 336.411 745.946 336.306 745.946 336.201C816.903 324.05 899.39 315.775 992.043 316.089V333.373V1192C987.746 1191.9 983.344 1191.48 979.047 1191.27C848.556 1183.93 729.491 1133.55 635.684 1054.05C634.427 1053 633.169 1052.06 632.016 1051.01C640.925 1019.58 671.844 907.397 699.305 774.366C738.085 586.132 753.492 440.007 746.051 336.516ZM429.101 609.805C429.101 545.909 439.582 484.526 458.763 426.914C458.868 426.495 459.077 425.971 459.182 425.552C465.366 407.012 472.493 388.89 480.459 371.292C482.136 367.626 484.022 363.96 485.699 360.398C516.199 296.292 557.914 238.68 608.433 190.077C609.586 190.181 610.635 190.181 611.787 190.077C635.16 187.982 653.398 194.581 667.652 210.503C684.631 229.567 696.161 261.096 702.344 304.043H702.449C702.449 304.148 702.449 304.253 702.449 304.253C598.896 325.203 523.012 353.066 480.459 371.083C472.493 388.785 465.261 406.802 459.077 425.343C459.601 425.133 460.23 424.924 460.754 424.609C462.746 423.562 551.521 376.006 706.118 344.057C706.118 344.686 706.223 345.21 706.223 345.733H706.327C712.092 444.512 696.475 587.18 659.581 765.881C636.523 877.334 611.159 973.913 598.476 1019.79C597.323 1018.64 596.171 1017.38 595.018 1016.13C492.512 911.378 429.101 767.872 429.101 609.805ZM1428.27 1017.17C1426.49 1018.95 1424.81 1020.84 1423.03 1022.62C1378.9 864.66 1305.64 547.375 1313.92 351.495C1393.68 368.673 1477.53 392.556 1565.15 425.552C1559.49 408.583 1553.1 392.032 1545.97 375.901C1466.52 347.724 1390.12 326.46 1317.06 311.062C1322.3 266.858 1332.99 231.452 1351.02 209.455C1365.7 191.543 1384.25 184.315 1408.88 186.62C1409.93 186.725 1410.97 186.62 1412.02 186.62C1398.5 173.84 1384.46 161.69 1369.78 150.167C1350.5 155.928 1333.52 167.032 1319.89 183.687C1297.57 210.817 1284.47 252.507 1278.18 303.31H1278.07V303.205C1190.66 286.865 1108.49 278.904 1032.29 276.704V258.582V27.7157C1036.8 27.8204 1041.2 28.2394 1045.6 28.4489C1162.26 35.1529 1269.79 76.1097 1358.25 141.578C1362.13 144.406 1366.01 147.234 1369.78 150.167C1384.46 161.585 1398.5 173.631 1412.02 186.41C1413.18 187.458 1414.22 188.61 1415.38 189.658C1466.84 238.994 1509.18 297.654 1539.89 362.912C1541.88 367.207 1544.08 371.502 1545.97 375.901C1553.1 392.137 1559.49 408.688 1565.15 425.552C1565.99 427.961 1566.72 430.475 1567.46 432.989C1585.28 488.716 1595.13 548.108 1595.13 609.701C1595.13 768.291 1531.3 912.111 1428.27 1017.17Z" fill="#3C2913"/>
<g opacity="0.35">
<path d="M429.099 611.585C429.099 940.287 695.739 1206.77 1024.64 1206.77C1032.92 1206.77 1041.09 1206.56 1049.27 1206.24C1154.08 1201.95 1251.97 1170.53 1336.03 1118.88L1381.1 1073.11C305.631 1031.52 703.39 110.361 703.39 110.361C538.417 216.158 429.099 401.144 429.099 611.585Z" fill="#1C120A"/>
</g>
<path d="M281.011 527.682V697.585H398.61V775.833C349.348 778.032 295.266 779.08 237.724 779.08C230.178 779.08 227.243 777.089 225.566 775.309C223.889 773.528 221.583 770.176 221.583 761.587V463.681C221.583 440.741 227.872 436.865 246.738 436.865H565.469V248.317H210.683C139.516 248.317 86.0622 266.124 51.7889 301.425C17.7252 336.411 0.536133 390.985 0.536133 463.681V761.587C0.536133 829.988 17.306 881.943 50.4263 915.882C83.7564 950.135 134.59 967.523 201.669 967.523C320.316 967.523 452.273 959.667 593.978 944.059L619.866 941.231V527.682H281.011ZM590.834 909.806C590.729 909.806 590.729 909.806 590.624 909.806C449.548 925.309 319.896 933.061 201.669 933.061C142.556 933.061 99.0588 918.815 71.3886 890.218C43.6136 861.622 29.7785 816.999 29.7785 756.14V458.234C29.7785 451.844 29.9881 445.769 30.3026 439.798C32.818 384.176 46.8628 342.905 72.7512 316.299C101.365 286.864 147.377 272.095 210.788 272.095H536.541V402.403H536.332H247.052C210.893 402.403 192.76 421.048 192.76 458.234V460.852V756.14C192.76 770.386 196.848 781.698 205.023 790.078C213.198 798.458 224.204 802.648 238.039 802.648C307.319 802.648 370.625 801.077 427.852 798.039C427.957 798.039 427.957 798.039 428.062 798.039V663.018H310.359V556.802V551.251H590.834V909.806Z" fill="#F7941D"/>
<path d="M427.951 663.018V798.04C427.846 798.04 427.846 798.04 427.741 798.04C370.514 801.182 307.208 802.649 237.928 802.649C224.093 802.649 213.088 798.459 204.912 790.079C196.737 781.699 192.649 770.386 192.649 756.14V460.853V458.234C192.649 420.943 210.782 402.403 246.942 402.403H536.326H536.535V271.99H210.782C147.476 271.99 101.463 286.76 72.7451 316.195C46.8567 342.801 32.812 384.072 30.2965 439.694C29.9821 445.769 29.7725 451.74 29.7725 458.129V756.035C29.7725 816.894 43.6076 861.517 71.3826 890.114C99.1576 918.71 142.549 932.956 201.663 932.956C319.89 932.956 449.542 925.205 590.618 909.702C590.723 909.702 590.723 909.702 590.828 909.702V551.251H310.352V556.803V663.018H427.951Z" fill="#3C2913"/>
<path d="M396.201 1344.62C396.935 1345.14 397.354 1346.09 397.354 1346.92L387.502 1475.76L582.975 1385.58L449.131 1355.93C448.188 1355.72 447.559 1354.99 447.244 1354.05C447.035 1353.84 446.615 1353.63 446.511 1353.31C446.511 1353.31 446.511 1353.31 446.406 1353.21L445.986 1351.74C427.644 1300.21 412.342 1255.48 400.498 1219.34L292.647 1272.34L396.201 1344.62Z" fill="#F7941D"/>
<path d="M1535.39 1353.63C1535.18 1353.84 1535.08 1354.05 1534.76 1354.26C1534.55 1354.47 1534.34 1354.57 1534.03 1354.68C1533.93 1354.68 1533.93 1354.78 1533.82 1354.78L1396.73 1385.47L1595.97 1475.56L1586.02 1346.71C1585.91 1345.77 1586.33 1344.83 1587.17 1344.31L1692.71 1272.13L1588.22 1221.75C1573.75 1258.1 1555.94 1302.51 1535.6 1353.21C1535.71 1353.42 1535.5 1353.52 1535.39 1353.63Z" fill="#F7941D"/>
<path d="M732.853 1276.74C996.663 1234.42 1265.4 1258.83 1531.83 1349.02C1584.13 1218.92 1619.56 1129.36 1623.75 1117.73C1625.32 1113.33 1626.16 1108.83 1626.26 1104.22C1626.47 1095.21 1624.27 1089.66 1622.49 1086.62C1616.2 1075.94 1604.67 1072.69 1601.32 1071.96C1467.69 1040.01 1330.7 1018.54 1194.13 1008.27C1129.67 1003.45 1065.1 1001.04 1000.54 1001.04C795.321 1001.04 589.681 1025.45 387.185 1074.05C384.146 1074.79 382.049 1076.04 380.792 1077.09C370.206 1085.89 374.817 1115.43 377.438 1126.11C383.936 1152.51 409.615 1233.48 450.701 1349.12C542.411 1316.34 637.37 1292.04 732.853 1276.74Z" fill="#F7941D"/>
<path d="M1700.58 1271.61C1700.47 1270.67 1699.95 1269.83 1699.11 1269.41L1590.21 1216.93C1612.22 1161.83 1626.06 1126.53 1628.57 1119.51C1630.36 1114.59 1631.3 1109.46 1631.4 1104.22C1631.61 1094.16 1628.99 1087.67 1626.9 1084C1619.56 1071.54 1606.25 1067.77 1602.37 1066.82C1468.53 1034.77 1331.22 1013.4 1194.45 1003.03C924.661 982.711 652.676 1004.92 385.826 1068.92C381.948 1069.86 379.118 1071.54 377.441 1072.9L376.812 1073.42C362.244 1085.68 371.781 1125.59 372.201 1127.26C375.659 1141.51 384.778 1171.57 398.823 1214.31L286.36 1269.62C285.522 1270.04 284.998 1270.88 284.893 1271.82C284.788 1272.76 285.207 1273.6 286.046 1274.12L392.01 1347.97L381.948 1479.75C381.843 1480.69 382.263 1481.53 383.101 1482.05C383.52 1482.36 384.044 1482.47 384.568 1482.47C384.988 1482.47 385.302 1482.36 385.617 1482.26L591.99 1387.04C593.038 1386.62 593.562 1385.47 593.457 1384.42C593.457 1384.11 593.248 1383.9 593.143 1383.59L567.779 1317.8C622.595 1302.82 678.04 1290.78 733.695 1281.77C957.886 1245.84 1185.75 1258.31 1412.66 1318.54L1386.25 1383.48C1386.15 1383.69 1385.94 1383.9 1385.94 1384.21C1385.94 1384.42 1386.04 1384.53 1386.15 1384.63C1386.15 1385.16 1386.36 1385.68 1386.67 1386.1C1386.88 1386.31 1387.09 1386.62 1387.4 1386.73L1597.86 1481.94C1598.18 1482.15 1598.6 1482.15 1598.91 1482.15C1599.44 1482.15 1599.96 1481.94 1600.38 1481.63C1601.11 1481.11 1601.53 1480.16 1601.53 1479.33L1591.37 1347.55L1699.43 1273.7C1700.27 1273.39 1700.68 1272.55 1700.58 1271.61ZM387.503 1475.76L397.355 1346.92C397.46 1345.98 397.041 1345.14 396.202 1344.62L292.649 1272.45L400.5 1219.44C412.448 1255.58 427.646 1300.31 445.988 1351.85L446.407 1353.31C446.407 1353.31 446.407 1353.31 446.512 1353.42C446.617 1353.73 446.931 1353.94 447.246 1354.15C447.56 1355.09 448.189 1355.83 449.132 1356.04L582.976 1385.68L387.503 1475.76ZM732.857 1276.74C637.373 1292.03 542.414 1316.44 450.6 1349.12C409.513 1233.48 383.835 1152.51 377.336 1126.11C374.716 1115.43 370.104 1085.99 380.69 1077.09C381.948 1076.15 384.149 1074.79 387.084 1074.05C589.684 1025.45 795.219 1001.04 1000.44 1001.04C1065 1001.04 1129.67 1003.45 1194.03 1008.27C1330.6 1018.54 1467.58 1039.9 1601.22 1071.96C1604.57 1072.69 1616.1 1076.04 1622.39 1086.62C1624.17 1089.76 1626.37 1095.21 1626.16 1104.22C1626.06 1108.72 1625.22 1113.33 1623.65 1117.73C1619.46 1129.36 1584.03 1218.92 1531.73 1349.02C1265.4 1258.72 996.667 1234.42 732.857 1276.74ZM1587.28 1344.41C1586.55 1344.93 1586.13 1345.88 1586.13 1346.82L1596.08 1475.66L1396.84 1385.58L1533.93 1354.88C1534.03 1354.88 1534.03 1354.78 1534.14 1354.78C1534.45 1354.67 1534.66 1354.57 1534.87 1354.36C1535.08 1354.15 1535.29 1353.94 1535.5 1353.73C1535.61 1353.63 1535.82 1353.52 1535.92 1353.31C1556.25 1302.72 1574.07 1258.2 1588.54 1221.85L1693.03 1272.24L1587.28 1344.41Z" fill="#8B5E3C"/>
<path d="M688.64 1197.97L612.128 1074.58L555.11 1086.31L525.658 1280.51L587.707 1267.84L592.004 1236.41L637.387 1227.09L653.633 1254.33L715.681 1241.65L713.48 1238.09C710.65 1236.73 708.03 1235.26 705.724 1233.38C696.71 1225.84 691.051 1213.89 688.64 1197.97ZM657.721 1244.79L656.568 1242.91L655.939 1243.01L640.846 1217.66L584.562 1229.19L580.265 1260.61L535.825 1269.72L536.139 1267.53L534.043 1267.94L560.77 1091.34L606.363 1082.01L607.516 1083.9L608.145 1083.8L702.265 1235.58L657.721 1244.79Z" fill="#8B5E3C"/>
<path d="M623.129 1187.39L595.249 1138.89L588.751 1194.41L623.129 1187.39ZM611.914 1183.31L598.184 1186.13L600.804 1163.93L611.914 1183.31Z" fill="#8B5E3C"/>
<path d="M582.672 1227.51L578.375 1258.93L536.031 1267.63L535.717 1269.83L580.157 1260.72L584.454 1229.29L640.738 1217.77L639.585 1215.88L582.672 1227.51Z" fill="#8B5E3C"/>
<path d="M595.257 1139L593.58 1136.07L586.662 1194.93L588.758 1194.52L595.257 1139Z" fill="#8B5E3C"/>
<path d="M607.406 1084L700.374 1233.9L656.563 1242.91L657.716 1244.79L702.156 1235.68L608.035 1083.9L607.406 1084Z" fill="#8B5E3C"/>
<path d="M752.679 1125.59L757.919 1170.74L788 1167.28L790.097 1185.51C777.729 1187.5 764.208 1189.28 749.115 1191.06C747.962 1191.06 747.648 1190.74 747.438 1190.64C747.229 1190.43 746.6 1189.91 746.285 1187.81L737.481 1111.66C736.852 1106.42 738.005 1105.58 742.302 1105.06L824.579 1095.53L818.815 1045.56L727.21 1056.14C708.763 1058.24 695.452 1064.52 687.591 1074.79C679.835 1084.95 676.9 1099.61 679.101 1118.36L687.905 1194.51C688.01 1195.67 688.325 1196.71 688.534 1197.87C690.945 1213.79 696.605 1225.73 705.514 1233.06C707.82 1234.95 710.44 1236.52 713.27 1237.78C719.768 1240.92 727.419 1242.59 736.223 1242.59C739.473 1242.59 742.827 1242.38 746.39 1241.97C776.785 1238.4 810.325 1232.54 846.066 1224.37L853.403 1222.69L840.93 1115.32L752.679 1125.59ZM745.552 1233.69C730.459 1235.47 718.93 1233.06 710.964 1226.57C710.44 1226.15 710.021 1225.52 709.497 1225C709.392 1224.89 709.287 1224.89 709.182 1224.79C701.216 1218.29 696.395 1207.29 694.613 1191.79L685.809 1115.64C683.923 1098.98 686.124 1086.52 692.622 1078.14C699.12 1069.76 710.335 1064.63 726.581 1062.74L809.801 1053.1L810.011 1055.09L811.583 1054.88L815.461 1088.19L741.464 1096.78C732.241 1097.83 728.153 1103.17 729.201 1112.71L738.005 1188.86C738.32 1191.79 739.473 1193.99 741.045 1195.77C743.246 1197.34 745.971 1198.08 749.22 1197.66C766.933 1195.56 783.074 1193.36 797.643 1190.85L793.87 1158.27L765.361 1161.62L765.151 1159.63L763.579 1159.84L760.225 1131.25L831.916 1122.97L832.126 1124.96L833.698 1124.75L844.284 1216.3C808.648 1224.37 775.737 1230.23 745.552 1233.69Z" fill="#8B5E3C"/>
<path d="M739.576 1095C730.352 1096.05 726.265 1101.39 727.313 1110.93L736.117 1187.08C736.536 1190.74 737.899 1193.47 740.205 1195.35C740.414 1195.56 740.729 1195.56 740.938 1195.67C739.366 1193.89 738.318 1191.69 737.899 1188.75L729.095 1112.6C727.942 1103.07 732.029 1097.83 741.358 1096.68L815.354 1088.09L811.476 1054.78L809.904 1054.99L813.573 1086.31L739.576 1095Z" fill="#8B5E3C"/>
<path d="M793.39 1156.3L764.968 1159.59L765.197 1161.57L793.619 1158.28L793.39 1156.3Z" fill="#8B5E3C"/>
<path d="M832.022 1124.86L842.398 1214.52C806.762 1222.69 773.851 1228.45 743.666 1232.01C728.782 1233.69 717.358 1231.39 709.497 1225.21C710.021 1225.73 710.44 1226.36 710.964 1226.78C718.93 1233.27 730.459 1235.58 745.552 1233.9C775.738 1230.44 808.649 1224.58 844.284 1216.41L833.699 1124.86H832.022Z" fill="#8B5E3C"/>
<path d="M1001.5 1197.45L1000.76 1172.94L913.561 1175.55L913.037 1157.64L981.688 1155.65L980.221 1105.37L911.569 1107.36L911.15 1091.76L998.353 1089.14L996.886 1038.86L850.988 1043.15L856.439 1227.51L1002.34 1223.22V1223.11L999.925 1223.01L1001.5 1197.45ZM864.509 1218.92L864.404 1217.14H862.622L857.696 1049.54L986.824 1045.77L986.929 1047.55H988.71L989.654 1081.07L902.451 1083.69L903.394 1114.17L970.264 1112.18L970.368 1113.96H972.15L973.094 1147.48L904.442 1149.47L905.385 1182.36L990.911 1179.85L991.016 1181.63H992.798L993.741 1215.15L864.509 1218.92Z" fill="#8B5E3C"/>
<path d="M902.561 1147.69L903.609 1182.36H905.39L904.342 1149.37L972.994 1147.38L972.051 1113.86L970.269 1113.96L971.212 1145.6L902.561 1147.69Z" fill="#8B5E3C"/>
<path d="M900.559 1081.8L901.607 1114.17L903.284 1114.07L902.445 1083.58L989.648 1081.07L988.705 1047.55H986.923L987.866 1079.29L900.559 1081.8Z" fill="#8B5E3C"/>
<path d="M990.912 1181.63L991.856 1213.26L864.51 1217.04V1218.92L993.637 1215.05L992.589 1181.53L990.912 1181.63Z" fill="#8B5E3C"/>
<path d="M1111.34 1045.25L1106.52 1121.71L1068.89 1042.63L1011.46 1039.07L1001.5 1197.55L999.927 1223.11L1002.34 1223.22L1058.52 1226.78L1063.34 1150.31L1100.96 1229.4L1158.4 1232.96L1169.93 1048.91L1111.34 1045.25ZM1150.44 1224.05L1106.31 1221.33L1105.47 1219.65L1104.42 1219.55L1056.63 1119.2L1050.45 1217.77L1008.63 1215.15L1008.73 1213.47L1006.84 1213.37L1017.33 1046.09L1061.45 1048.81L1062.29 1050.49L1063.34 1050.59L1111.13 1150.94L1117.32 1052.37L1159.14 1054.99L1159.03 1056.67L1160.92 1056.77L1150.44 1224.05Z" fill="#8B5E3C"/>
<path d="M1111.13 1150.94L1063.44 1050.59H1062.39L1111.03 1152.72L1111.13 1150.94Z" fill="#8B5E3C"/>
<path d="M1159.03 1056.66L1148.65 1222.27L1105.58 1219.55L1106.31 1221.22L1150.44 1224.05L1160.92 1056.77L1159.03 1056.66Z" fill="#8B5E3C"/>
<path d="M1048.77 1215.99L1008.84 1213.47L1008.73 1215.15L1050.55 1217.77L1056.74 1119.2L1055.06 1115.64L1048.77 1215.99Z" fill="#8B5E3C"/>
<path d="M1243.61 1060.12C1238.58 1059.28 1233.75 1058.86 1229.25 1058.86C1217.61 1058.86 1207.87 1061.69 1200.42 1067.24C1190.15 1074.89 1183.44 1088.3 1180.51 1106.94L1168.35 1182.57C1165.52 1200.17 1167.72 1214.31 1174.85 1224.47C1182.08 1234.74 1194.45 1241.34 1211.74 1244.06C1234.49 1247.73 1263.63 1250.66 1298.32 1252.96L1305.97 1253.49L1313.72 1205.2L1304.82 1204.36C1294.75 1203.42 1286.26 1202.58 1279.56 1202.06C1272.95 1201.43 1267.5 1200.9 1263.42 1200.38L1257.02 1199.65C1257.02 1199.65 1242.77 1197.87 1238.99 1197.34C1235.22 1196.82 1231.76 1196.29 1228.62 1195.77C1227.36 1195.56 1227.05 1195.14 1226.73 1194.83C1226.63 1194.62 1226.1 1193.89 1226.42 1191.79L1238.58 1116.16C1239.41 1110.92 1240.99 1110.92 1242.87 1110.92C1243.5 1110.92 1244.23 1111.03 1245.07 1111.13L1326.93 1124.23L1331.54 1095.21L1326.93 1073.32L1243.61 1060.12ZM1319.7 1114.7L1246.12 1102.96C1236.9 1101.5 1231.55 1105.48 1230.09 1114.9L1217.93 1190.53C1217.4 1194.09 1217.93 1197.13 1219.6 1199.54C1221.18 1200.9 1222.96 1201.95 1225.26 1202.37C1228.51 1202.89 1231.97 1203.42 1235.85 1203.94C1239.73 1204.47 1243.71 1204.99 1247.9 1205.51C1252.1 1206.04 1256.29 1206.56 1260.48 1207.08C1264.67 1207.61 1270.23 1208.13 1276.94 1208.76C1283.64 1209.39 1292.03 1210.12 1302.09 1211.06L1301.88 1212.64C1302.61 1212.74 1303.24 1212.74 1303.98 1212.84L1298.84 1244.79C1264.15 1242.49 1235.54 1239.56 1213 1235.89C1200.74 1233.9 1191.72 1229.92 1185.54 1223.95C1183.34 1222.17 1181.35 1220.18 1179.78 1217.87C1173.91 1209.49 1172.23 1197.55 1174.64 1182.15L1186.8 1106.52C1189.42 1089.97 1194.97 1078.56 1203.46 1072.17C1211.95 1065.88 1224.22 1064 1240.36 1066.51L1323.05 1079.71L1322.84 1081.18L1324.83 1081.49L1319.7 1114.7Z" fill="#8B5E3C"/>
<path d="M1317.92 1112.91L1244.34 1101.18C1235.12 1099.72 1229.77 1103.7 1228.31 1113.12L1216.15 1188.75C1215.62 1192.42 1216.15 1195.46 1217.82 1197.87C1218.35 1198.6 1218.98 1199.02 1219.61 1199.54C1217.93 1197.13 1217.4 1194.1 1217.93 1190.53L1230.09 1114.91C1231.55 1105.48 1237 1101.5 1246.12 1102.96L1319.7 1114.7L1325.05 1081.6L1323.05 1081.28L1317.92 1112.91Z" fill="#8B5E3C"/>
<path d="M1211.34 1234.11C1200.34 1232.33 1191.85 1228.98 1185.77 1223.95C1191.95 1229.81 1200.97 1233.9 1213.23 1235.89C1235.76 1239.45 1264.38 1242.49 1299.07 1244.79L1304.2 1212.85C1303.47 1212.74 1302.84 1212.74 1302.11 1212.64L1297.29 1243.01C1262.38 1240.71 1233.88 1237.67 1211.34 1234.11Z" fill="#8B5E3C"/>
<path d="M1451.45 1104.43L1401.77 1163.93L1387.41 1087.67L1326.3 1071.75L1326.62 1073.22L1331.23 1095.11L1357.22 1217.98L1344.43 1267L1401.24 1281.77L1414.03 1232.75L1512.45 1120.25L1451.45 1104.43ZM1406.48 1228.77L1395.27 1271.61L1354.7 1261.03L1355.02 1259.77L1352.92 1259.25L1364.14 1216.41L1335.52 1081.49L1378.29 1092.59L1378.5 1093.96L1380.07 1094.37L1396.11 1179.64L1452.6 1111.97L1495.36 1123.08L1494.42 1124.12L1497.14 1124.86L1406.48 1228.77Z" fill="#8B5E3C"/>
<path d="M1396.22 1179.75L1380.18 1094.48L1378.61 1094.06L1394.96 1181.21L1396.22 1179.75Z" fill="#8B5E3C"/>
<path d="M1494.54 1124.23L1404.71 1226.99L1393.5 1269.93L1355.14 1259.88L1354.82 1261.14L1395.28 1271.61L1406.5 1228.77L1497.26 1124.96L1494.54 1124.23Z" fill="#8B5E3C"/>
<path d="M607.414 1084L606.261 1082.12L560.668 1091.44L533.941 1268.05L536.038 1267.63L578.381 1258.94L582.679 1227.51L639.696 1215.88L640.849 1217.77L655.942 1243.12L656.571 1243.01L700.382 1234.01L607.414 1084ZM593.579 1136.06L595.256 1139L623.136 1187.5L588.758 1194.51L586.662 1194.93L593.579 1136.06Z" fill="#3C2913"/>
<path d="M743.667 1231.91C773.853 1228.45 806.763 1222.59 842.399 1214.42L832.023 1124.75L831.813 1122.76L760.122 1131.04L763.476 1159.63L765.048 1159.42L793.557 1156.07L793.767 1158.06L797.54 1190.64C782.971 1193.15 766.83 1195.46 749.117 1197.45C745.868 1197.87 743.248 1197.13 740.942 1195.56C740.732 1195.46 740.418 1195.35 740.208 1195.25C737.902 1193.36 736.54 1190.53 736.12 1186.97L727.316 1110.82C726.163 1101.29 730.251 1096.05 739.579 1094.9L813.576 1086.31L809.908 1054.99L809.698 1053L726.478 1062.64C710.337 1064.52 699.017 1069.65 692.519 1078.03C686.021 1086.41 683.82 1098.98 685.706 1115.53L694.51 1191.69C696.292 1207.19 701.218 1218.19 709.079 1224.68C709.184 1224.79 709.289 1224.79 709.393 1224.89C717.464 1231.39 728.784 1233.69 743.667 1231.91Z" fill="#3C2913"/>
<path d="M990.929 1181.63L990.824 1179.75L905.403 1182.36H903.621L902.573 1147.69L971.224 1145.6L970.281 1113.96L970.176 1112.08L903.306 1114.07L901.63 1114.17L900.581 1081.8L987.889 1079.29L986.946 1047.55L986.841 1045.77L857.818 1049.54L862.745 1217.14L864.526 1217.04L991.872 1213.26L990.929 1181.63Z" fill="#3C2913"/>
<path d="M1159.03 1056.66L1159.14 1054.99L1117.32 1052.37L1111.13 1150.94L1111.03 1152.72L1062.39 1050.59L1061.56 1048.81L1017.43 1046.08L1006.95 1213.37L1008.84 1213.47L1048.77 1215.99L1055.06 1115.64L1056.73 1119.2L1104.53 1219.55H1105.58L1148.65 1222.27L1159.03 1056.66Z" fill="#3C2913"/>
<path d="M1216.16 1188.86L1228.31 1113.23C1229.78 1103.8 1235.23 1099.82 1244.35 1101.29L1317.93 1113.02L1322.96 1081.39L1323.17 1079.92L1240.47 1066.72C1224.33 1064.1 1212.07 1065.99 1203.58 1072.38C1195.09 1078.66 1189.53 1090.18 1186.91 1106.73L1174.76 1182.36C1172.24 1197.76 1174.02 1209.7 1179.89 1218.08C1181.46 1220.28 1183.46 1222.27 1185.66 1224.16C1191.74 1229.08 1200.23 1232.54 1211.23 1234.32C1233.76 1237.88 1262.38 1240.92 1297.07 1243.22L1301.89 1212.85L1302.1 1211.27C1292.04 1210.33 1283.66 1209.49 1276.95 1208.97C1270.24 1208.34 1264.68 1207.82 1260.49 1207.29C1256.3 1206.77 1252 1206.25 1247.91 1205.72C1243.72 1205.2 1239.74 1204.68 1235.86 1204.15C1231.98 1203.63 1228.52 1203.1 1225.28 1202.58C1222.97 1202.16 1221.19 1201.11 1219.62 1199.75C1218.99 1199.23 1218.36 1198.81 1217.83 1198.08C1216.16 1195.46 1215.63 1192.42 1216.16 1188.86Z" fill="#3C2913"/>
<path d="M1404.71 1226.99L1494.53 1124.23L1495.48 1123.18L1452.71 1112.08L1396.22 1179.74L1394.96 1181.21L1378.61 1094.06L1378.3 1092.7L1335.53 1081.59L1364.15 1216.51L1352.93 1259.35L1355.13 1259.88L1393.49 1269.93L1404.71 1226.99Z" fill="#3C2913"/>
</g>
</svg>
