<svg width="15" height="15" viewBox="0 0 15 15" fill="none" xmlns="http://www.w3.org/2000/svg">
<path d="M10.7555 11.875C9.88382 11.875 9.0121 11.6309 8.14038 11.1428C7.26867 10.6546 6.48485 10.0208 5.78894 9.24138C5.09303 8.46197 4.52715 7.5841 4.09129 6.60777C3.65543 5.63145 3.4375 4.65512 3.4375 3.6788C3.4375 3.52291 3.48511 3.39164 3.58034 3.28499C3.67557 3.17833 3.78912 3.125 3.92097 3.125H5.42634C5.52889 3.125 5.6168 3.16397 5.69005 3.24191C5.7633 3.31985 5.81092 3.42446 5.83289 3.55573L6.12957 5.08175C6.14422 5.18841 6.14239 5.28891 6.12408 5.38326C6.10576 5.47761 6.06731 5.5535 6.0087 5.61094L4.92089 6.8416C5.33111 7.60461 5.78894 8.26711 6.29439 8.82911C6.79984 9.39112 7.37855 9.87312 8.0305 10.2751L9.07437 9.06909C9.14762 8.97884 9.22637 8.91731 9.31061 8.88449C9.39485 8.85168 9.48093 8.84757 9.56883 8.87219L10.8654 9.17985C10.9753 9.20447 11.0669 9.266 11.1401 9.36445C11.2134 9.4629 11.25 9.57777 11.25 9.70904V11.3212C11.25 11.4771 11.2024 11.6084 11.1072 11.715C11.0119 11.8217 10.8947 11.875 10.7555 11.875Z" fill="#D9D9D9"/>
</svg>
