<svg width="18" height="29" viewBox="0 0 18 29" fill="none" xmlns="http://www.w3.org/2000/svg">
<path d="M1.8913 28.5C1.3913 28.5 0.951087 28.3123 0.570652 27.9368C0.190217 27.5613 0 27.1268 0 26.6333V2.33448C0 1.86245 0.190217 1.4387 0.570652 1.06322C0.951087 0.687739 1.3913 0.5 1.8913 0.5H16.1413C16.6196 0.5 17.0489 0.687739 17.4293 1.06322C17.8098 1.4387 18 1.86245 18 2.33448V26.6333C18 27.1268 17.8098 27.5613 17.4293 27.9368C17.0489 28.3123 16.6196 28.5 16.1413 28.5H1.8913ZM1.8913 23.7368V26.6333H16.1413V23.7368H1.8913ZM9 26.1506C9.28261 26.1506 9.5163 26.0594 9.70109 25.877C9.88587 25.6946 9.97826 25.464 9.97826 25.1851C9.97826 24.9276 9.88043 24.7077 9.68478 24.5253C9.48913 24.3429 9.26087 24.2517 9 24.2517C8.71739 24.2517 8.48913 24.3429 8.31522 24.5253C8.1413 24.7077 8.05435 24.9383 8.05435 25.2172C8.05435 25.4747 8.14674 25.6946 8.33152 25.877C8.5163 26.0594 8.73913 26.1506 9 26.1506ZM1.8913 21.9023H16.1413V5.19885H1.8913V21.9023ZM1.8913 3.33218H16.1413V2.33448H1.8913V3.33218ZM1.8913 23.7368V26.6333V23.7368ZM1.8913 3.33218V2.33448V3.33218Z" fill="#FC8800"/>
</svg>
