<svg width="179" height="61" viewBox="0 0 179 61" fill="none" xmlns="http://www.w3.org/2000/svg">
<path d="M29.035 37.266C27.705 37.266 26.6473 36.8987 25.862 36.164C25.0767 35.4167 24.684 34.3653 24.684 33.01V31.87H26.736V33.01C26.736 33.7193 26.926 34.2893 27.306 34.72C27.6987 35.138 28.2623 35.347 28.997 35.347C29.7063 35.347 30.232 35.138 30.574 34.72C30.916 34.302 31.087 33.732 31.087 33.01V25.562H28.769V23.7H34.621V25.562H33.139V33.01C33.139 34.3907 32.778 35.4483 32.056 36.183C31.3467 36.905 30.3397 37.266 29.035 37.266ZM41.5168 37.266C39.8828 37.266 38.5845 36.81 37.6218 35.898C36.6591 34.9733 36.1778 33.6433 36.1778 31.908V28.792C36.1778 27.0567 36.6591 25.733 37.6218 24.821C38.5845 23.8963 39.8828 23.434 41.5168 23.434C43.1508 23.434 44.4491 23.8963 45.4118 24.821C46.3871 25.733 46.8748 27.0567 46.8748 28.792V31.908C46.8748 33.6433 46.3871 34.9733 45.4118 35.898C44.4491 36.81 43.1508 37.266 41.5168 37.266ZM41.5168 35.423C42.5681 35.423 43.3788 35.119 43.9488 34.511C44.5188 33.8903 44.8038 33.048 44.8038 31.984V28.716C44.8038 27.652 44.5188 26.816 43.9488 26.208C43.3788 25.5873 42.5681 25.277 41.5168 25.277C40.4908 25.277 39.6865 25.5873 39.1038 26.208C38.5211 26.816 38.2298 27.652 38.2298 28.716V31.984C38.2298 33.048 38.5211 33.8903 39.1038 34.511C39.6865 35.119 40.4908 35.423 41.5168 35.423ZM53.826 37.266C52.8253 37.266 51.9387 37.0887 51.166 36.734C50.3933 36.3793 49.7853 35.86 49.342 35.176C48.9113 34.4793 48.696 33.637 48.696 32.649V32.174H50.729V32.649C50.729 33.5863 51.0077 34.2893 51.565 34.758C52.135 35.2267 52.8887 35.461 53.826 35.461C54.776 35.461 55.4917 35.2647 55.973 34.872C56.4543 34.4667 56.695 33.9473 56.695 33.314C56.695 32.896 56.581 32.554 56.353 32.288C56.125 32.022 55.802 31.813 55.384 31.661C54.966 31.4963 54.4657 31.3443 53.883 31.205L53.18 31.034C52.3313 30.8313 51.5903 30.5843 50.957 30.293C50.3363 29.989 49.855 29.59 49.513 29.096C49.171 28.602 49 27.9687 49 27.196C49 26.4107 49.19 25.7393 49.57 25.182C49.9627 24.6247 50.501 24.194 51.185 23.89C51.869 23.586 52.6733 23.434 53.598 23.434C54.5227 23.434 55.346 23.5923 56.068 23.909C56.8027 24.2257 57.379 24.6943 57.797 25.315C58.215 25.9357 58.424 26.7147 58.424 27.652V28.336H56.391V27.652C56.391 27.082 56.2707 26.6197 56.03 26.265C55.802 25.9103 55.479 25.6507 55.061 25.486C54.643 25.3213 54.1553 25.239 53.598 25.239C52.7873 25.239 52.154 25.41 51.698 25.752C51.2547 26.0813 51.033 26.5437 51.033 27.139C51.033 27.5443 51.128 27.88 51.318 28.146C51.5207 28.3993 51.812 28.6083 52.192 28.773C52.572 28.9377 53.047 29.0833 53.617 29.21L54.32 29.381C55.1813 29.571 55.9413 29.818 56.6 30.122C57.2587 30.4133 57.778 30.8123 58.158 31.319C58.538 31.8257 58.728 32.478 58.728 33.276C58.728 34.074 58.5253 34.7707 58.12 35.366C57.7273 35.9613 57.1637 36.43 56.429 36.772C55.6943 37.1013 54.8267 37.266 53.826 37.266ZM52.477 22.598L50.197 20.204H52.382L53.522 21.534H53.826L54.966 20.204H57.17L54.871 22.598H52.477ZM70.7219 37.266C69.0879 37.266 67.7896 36.81 66.8269 35.898C65.8642 34.9733 65.3829 33.6433 65.3829 31.908V28.792C65.3829 27.0567 65.8642 25.733 66.8269 24.821C67.7896 23.8963 69.0879 23.434 70.7219 23.434C72.3559 23.434 73.6542 23.8963 74.6169 24.821C75.5922 25.733 76.0799 27.0567 76.0799 28.792V31.908C76.0799 33.6433 75.5922 34.9733 74.6169 35.898C73.6542 36.81 72.3559 37.266 70.7219 37.266ZM70.7219 35.423C71.7732 35.423 72.5839 35.119 73.1539 34.511C73.7239 33.8903 74.0089 33.048 74.0089 31.984V28.716C74.0089 27.652 73.7239 26.816 73.1539 26.208C72.5839 25.5873 71.7732 25.277 70.7219 25.277C69.6959 25.277 68.8916 25.5873 68.3089 26.208C67.7262 26.816 67.4349 27.652 67.4349 28.716V31.984C67.4349 33.048 67.7262 33.8903 68.3089 34.511C68.8916 35.119 69.6959 35.423 70.7219 35.423ZM83.3518 37V23.7H87.3038L90.9138 35.632H91.2178V23.7H93.2508V37H89.2988L85.6888 25.049H85.3848V37H83.3518ZM95.0367 37L98.8367 23.7H102.447L106.228 37H104.119L103.245 33.865H98.0387L97.1647 37H95.0367ZM98.5517 31.965H102.732L100.794 24.973H100.49L98.5517 31.965ZM108.03 37V23.7H111.887L114.794 35.632H115.098L118.005 23.7H121.862V37H119.867V25.144H119.563L116.675 37H113.217L110.329 25.144H110.025V37H108.03ZM123.648 37L127.448 23.7H131.058L134.839 37H132.73L131.856 33.865H126.65L125.776 37H123.648ZM127.163 31.965H131.343L129.405 24.973H129.101L127.163 31.965Z" fill="#F7941E"/>
<path d="M155 30.5L145.671 40L144 38.2979L151.696 30.5L144.039 22.7021L145.71 21L155 30.5Z" fill="#F7941E"/>
</svg>
