<svg width="25" height="21" viewBox="0 0 25 21" fill="none" xmlns="http://www.w3.org/2000/svg">
<path d="M1.83544 20.4842C1.35021 20.4842 0.922996 20.3049 0.553797 19.9462C0.184599 19.5876 0 19.1657 0 18.6804V2.35131C0 1.86608 0.184599 1.43886 0.553797 1.06967C0.922996 0.700468 1.35021 0.515869 1.83544 0.515869H23.1962C23.6603 0.515869 24.077 0.700468 24.4462 1.06967C24.8154 1.43886 25 1.86608 25 2.35131V18.6804C25 19.1657 24.8154 19.5876 24.4462 19.9462C24.077 20.3049 23.6603 20.4842 23.1962 20.4842H1.83544ZM12.5 11.0222L1.83544 3.99688V18.6804H23.1962V3.99688L12.5 11.0222ZM12.5 9.18676L23.038 2.35131H1.99367L12.5 9.18676ZM1.83544 3.99688V2.35131V18.6804V3.99688Z" fill="#FC8800"/>
</svg>
